<?xml version="1.0" encoding="iso-8859-1"?>
<!-- Generator: Adobe Illustrator 19.0.0, SVG Export Plug-In . SVG Version: 6.00 Build 0)  -->
<svg version="1.1" id="Capa_1" xmlns="http://www.w3.org/2000/svg" xmlns:xlink="http://www.w3.org/1999/xlink" x="0px" y="0px"
	 viewBox="0 0 469.333 469.333" style="enable-background:new 0 0 469.333 469.333;" xml:space="preserve">
<g>
	<g>
		<g>
			<path style="fill:#303C42;" d="M344.063,188.458c2.021,2.25,4.917,3.542,7.938,3.542c3.021,0,5.917-1.292,7.938-3.542
				l53.625-59.76c8.438-9.5,13.104-22.063,13.104-35.365c0-27.938-20.729-50.667-46.229-50.667c-9.792,0-19.458,5.031-28.438,14.677
				c-8.979-9.646-18.646-14.677-28.438-14.677c-25.5,0-46.229,22.729-46.229,50.667c0,13.302,4.667,25.865,13.146,35.406
				L344.063,188.458z"/>
			<path style="fill:#303C42;" d="M463.688,299.917l-147.875-78.854c-10.25-5.479-22.458-6.5-33.563-2.833l-47.583,15.865
				l-47.583-15.875c-11.063-3.656-23.292-2.635-33.563,2.833L5.646,299.917c-3.25,1.74-5.375,5.042-5.625,8.719
				c-0.229,3.688,1.438,7.229,4.438,9.375l88.583,63.271c41.563,29.688,90.542,45.385,141.625,45.385s100.063-15.698,141.625-45.385
				l88.583-63.271c3-2.146,4.667-5.688,4.438-9.375C469.063,304.958,466.938,301.656,463.688,299.917z M305.125,320
				c-23.042,0-45.354,6.76-64.542,19.542c-1.792,1.198-3.854,1.792-5.917,1.792s-4.125-0.594-5.917-1.792
				C209.563,326.76,187.25,320,164.208,320c-57.542,0-153.542-10.667-153.542-10.667s96-10.667,153.542-10.667
				c24.917,0,49.125,6.688,70.458,19.396c21.333-12.708,45.542-19.396,70.458-19.396c57.542,0,153.542,10.667,153.542,10.667
				S362.667,320,305.125,320z"/>
		</g>
	</g>
</g>
<g>
</g>
<g>
</g>
<g>
</g>
<g>
</g>
<g>
</g>
<g>
</g>
<g>
</g>
<g>
</g>
<g>
</g>
<g>
</g>
<g>
</g>
<g>
</g>
<g>
</g>
<g>
</g>
<g>
</g>
</svg>
